<svg width="512" height="512" viewBox="0 0 512 512" fill="none" xmlns="http://www.w3.org/2000/svg">
  <defs>
    <linearGradient id="bg" x1="84" y1="64" x2="436" y2="448" gradientUnits="userSpaceOnUse">
      <stop stop-color="#14B8A6"/>
      <stop offset="1" stop-color="#0B1727"/>
    </linearGradient>
    <linearGradient id="card" x1="120" y1="148" x2="392" y2="364" gradientUnits="userSpaceOnUse">
      <stop stop-color="#E7FAFB" stop-opacity="0.98"/>
      <stop offset="1" stop-color="#B6F4E7" stop-opacity="0.98"/>
    </linearGradient>
  </defs>
  <rect x="44" y="44" width="424" height="424" rx="112" fill="url(#bg)"/>
  <rect x="88" y="88" width="336" height="336" rx="92" fill="#04111E" fill-opacity="0.42"/>
  <rect x="126" y="156" width="260" height="200" rx="38" fill="url(#card)"/>
  <rect x="150" y="190" width="212" height="20" rx="10" fill="#0B1727" fill-opacity="0.16"/>
  <rect x="150" y="230" width="66" height="48" rx="14" fill="#14B8A6" fill-opacity="0.26"/>
  <rect x="238" y="242" width="124" height="16" rx="8" fill="#0B1727" fill-opacity="0.16"/>
  <rect x="238" y="268" width="88" height="12" rx="6" fill="#0B1727" fill-opacity="0.12"/>
  <path d="M208 338C208 311.49 229.49 290 256 290C282.51 290 304 311.49 304 338V344H208V338Z" fill="#0B1727"/>
  <circle cx="256" cy="290" r="18" fill="#0B1727"/>
</svg>
